# xmcd CD database file
#
# Track frame offsets:
#	150
#	19763
#	46246
#	66823
#	96522
#
# Disc length: 1628 seconds
#
# Revision: 0
# Processed by: cddbd v1.5.2PL0 Copyright (c) Steve Scherf et al.
# Submitted via: CDex 1.51
#
DISCID=3c065a05
DTITLE=Rites of Sojourn - Rites of Soujourn EP
DYEAR=2007
DGENRE=Jazz
TTITLE0=Pacemaker
TTITLE1=Mancora
TTITLE2=King Tide
TTITLE3=Remember
TTITLE4=In My Soul
EXTD=YEAR: 2007
EXTT0=
EXTT1=
EXTT2=
EXTT3=
EXTT4=
PLAYORDER=
